<svg xmlns="http://www.w3.org/2000/svg" viewBox="0 0 168.6 31.98"><defs><style>.cls-1{fill:none;stroke:#ef4934;stroke-miterlimit:10;stroke-width:4.02px;}.cls-2{fill:#ec3d28;}</style></defs><title>FineTuned_Dark</title><g id="Layer_2" data-name="Layer 2"><g id="Layer_2-2" data-name="Layer 2"><rect class="cls-1" x="2.01" y="2.01" width="27.96" height="27.96"/><path class="cls-1" d="M9.53,9.68H20.17A2.29,2.29,0,0,1,22.45,12V20a2.29,2.29,0,0,1-2.28,2.28H9.53"/></g><g id="Layer_3" data-name="Layer 3"><path d="M40,5h6.55a13.27,13.27,0,0,1,6.9,1.62,9.82,9.82,0,0,1,3.94,4.2,12.6,12.6,0,0,1,1.24,5.52,10.37,10.37,0,0,1-1.49,5.56,10,10,0,0,1-4,3.71,11.88,11.88,0,0,1-5.52,1.29H40Zm6.87,17.74A7.79,7.79,0,0,0,52.16,21a6.26,6.26,0,0,0,2-5A7.13,7.13,0,0,0,53,11.89a5.85,5.85,0,0,0-2.53-2.14,7.16,7.16,0,0,0-2.72-.59H44.27v13.6Z"/><path d="M77.84,5V9.19H67.22v4.67h9.4V18h-9.4v4.73h11v4.17H62.9V5Z"/><path d="M100.84,5l-10,22.91L80.85,5H86l5,12.35L95.73,5Z"/><path class="cls-2" d="M108.94,5v21.9h-4.31V5Z"/><path d="M121.32,8.74a3.76,3.76,0,0,0-2.22.57,2,2,0,0,0-.79,1.7,2.23,2.23,0,0,0,1.15,1.83,14.29,14.29,0,0,0,3.05,1.5,12.69,12.69,0,0,1,2.65,1.29,5.81,5.81,0,0,1,1.83,2,6.49,6.49,0,0,1,.73,3.24,5.93,5.93,0,0,1-.88,3.14,6.12,6.12,0,0,1-2.57,2.29,9,9,0,0,1-4,.85,13.5,13.5,0,0,1-3.9-.58,12.17,12.17,0,0,1-3.6-1.77l1.9-3.36a10.35,10.35,0,0,0,2.59,1.37,7.7,7.7,0,0,0,2.62.54,4.71,4.71,0,0,0,2.38-.58,2,2,0,0,0,1-1.89q0-1.7-3.18-2.95a28.36,28.36,0,0,1-3.12-1.43,6.42,6.42,0,0,1-2.16-2,5.42,5.42,0,0,1-.91-3.21,5.92,5.92,0,0,1,1.86-4.55,7.56,7.56,0,0,1,5-1.87,12.93,12.93,0,0,1,4.08.55A14,14,0,0,1,127.92,7l-1.64,3.3A10.66,10.66,0,0,0,121.32,8.74Z"/><path d="M146.88,5V9.19H136.26v4.67h9.4V18h-9.4v4.73h11v4.17H131.94V5Z"/><path d="M163.57,26.92,159,20h-2.89v7h-4.31V5h6.64a9.26,9.26,0,0,1,6.32,2A6.83,6.83,0,0,1,167,12.4a8.67,8.67,0,0,1-.85,3.79,6.29,6.29,0,0,1-2.6,2.78l5.09,7.95Zm-7.5-11.13h3.06a3.05,3.05,0,0,0,2.56-1,3.53,3.53,0,0,0,.8-2.22,4.21,4.21,0,0,0-.68-2.28,2.89,2.89,0,0,0-2.65-1.09h-3.09Z"/></g></g></svg>