<svg xmlns="http://www.w3.org/2000/svg" viewBox="0 0 170.1 32"><defs><style>.cls-1,.cls-2{fill:#ec3d28;}.cls-2{stroke:#fff;stroke-miterlimit:10;stroke-width:3.99px;}.cls-3{fill:#fff;}</style></defs><title>FineTuned_White</title><g id="Layer_2" data-name="Layer 2"><g id="Layer_4" data-name="Layer 4"><rect class="cls-1" width="31.89" height="32"/><path class="cls-2" d="M9.57,9.75H20.12A2.27,2.27,0,0,1,22.38,12v8a2.27,2.27,0,0,1-2.26,2.27H9.57"/></g><g id="Layer_5" data-name="Layer 5"><path class="cls-3" d="M41,5h6.57a13.32,13.32,0,0,1,6.93,1.63,9.86,9.86,0,0,1,4,4.21,12.64,12.64,0,0,1,1.24,5.54A10.41,10.41,0,0,1,58.22,22a10,10,0,0,1-4,3.72A11.93,11.93,0,0,1,48.66,27H41Zm6.9,17.8a7.81,7.81,0,0,0,5.35-1.73,6.28,6.28,0,0,0,2-5,7.16,7.16,0,0,0-1.09-4.18A5.87,5.87,0,0,0,51.6,9.78a7.18,7.18,0,0,0-2.73-.6H45.35V22.83Z"/><path class="cls-3" d="M79,5V9.22H68.37V13.9h9.44v4.18H68.37v4.75H79.45V27H64V5Z"/><path class="cls-3" d="M102.11,5l-10,23L82,5h5.2l5,12.39L97,5Z"/><path class="cls-1" d="M110.23,5V27H105.9V5Z"/><path class="cls-3" d="M122.66,8.77a3.77,3.77,0,0,0-2.22.57,2,2,0,0,0-.79,1.7,2.24,2.24,0,0,0,1.15,1.84,14.36,14.36,0,0,0,3.06,1.51,12.74,12.74,0,0,1,2.66,1.3,5.81,5.81,0,0,1,1.84,2,6.5,6.5,0,0,1,.73,3.25,6,6,0,0,1-.88,3.15,6.14,6.14,0,0,1-2.58,2.3,9,9,0,0,1-4.06.85,13.55,13.55,0,0,1-3.91-.58A12.22,12.22,0,0,1,114,24.89l1.91-3.37a10.41,10.41,0,0,0,2.6,1.37,7.71,7.71,0,0,0,2.63.54,4.72,4.72,0,0,0,2.39-.58,2,2,0,0,0,1-1.9q0-1.7-3.2-3a28.46,28.46,0,0,1-3.13-1.43,6.45,6.45,0,0,1-2.17-2,5.44,5.44,0,0,1-.91-3.23A5.94,5.94,0,0,1,117,6.8a7.58,7.58,0,0,1,5-1.88,13,13,0,0,1,4.09.55A14,14,0,0,1,129.28,7l-1.64,3.31A10.7,10.7,0,0,0,122.66,8.77Z"/><path class="cls-3" d="M148.31,5V9.22H137.65V13.9h9.44v4.18h-9.44v4.75h11.08V27H133.32V5Z"/><path class="cls-3" d="M165.06,27l-4.63-7h-2.9v7H153.2V5h6.66a9.29,9.29,0,0,1,6.34,2,6.85,6.85,0,0,1,2.25,5.42,8.7,8.7,0,0,1-.85,3.81A6.32,6.32,0,0,1,165,19l5.11,8Zm-7.52-11.17h3.08a3.06,3.06,0,0,0,2.57-1,3.54,3.54,0,0,0,.81-2.22,4.22,4.22,0,0,0-.69-2.28,2.9,2.9,0,0,0-2.66-1.09h-3.11Z"/></g></g></svg>