<svg xmlns="http://www.w3.org/2000/svg" viewBox="0 0 168.64 32"><defs><style>.cls-1{fill:#ec3d28;}.cls-2{fill:#f06453;}.cls-3,.cls-4{fill:#b12e1e;}.cls-3{isolation:isolate;}</style></defs><title>DeviserLogoDark</title><g id="Layer_2" data-name="Layer 2"><g id="Layer_3" data-name="Layer 3"><path d="M40,5.05h6.55a13.27,13.27,0,0,1,6.9,1.62,9.82,9.82,0,0,1,3.94,4.2,12.6,12.6,0,0,1,1.24,5.52A10.37,10.37,0,0,1,57.13,22a10,10,0,0,1-4,3.71A11.88,11.88,0,0,1,47.61,27H40Zm6.87,17.74a7.79,7.79,0,0,0,5.33-1.73,6.26,6.26,0,0,0,2-5,7.13,7.13,0,0,0-1.09-4.17,5.85,5.85,0,0,0-2.53-2.14,7.16,7.16,0,0,0-2.72-.59H44.31v13.6Z"/><path d="M77.87,5.05V9.22H67.25v4.67h9.4v4.17h-9.4v4.73h11V27H62.94V5.05Z"/><path d="M100.88,5.05,90.88,28l-10-22.91h5.18l5,12.35,4.7-12.35Z"/><path class="cls-1" d="M109,5.05V27h-4.31V5.05Z"/><path d="M121.35,8.77a3.76,3.76,0,0,0-2.22.57,2,2,0,0,0-.79,1.7,2.23,2.23,0,0,0,1.15,1.83,14.29,14.29,0,0,0,3.05,1.5,12.69,12.69,0,0,1,2.65,1.29,5.81,5.81,0,0,1,1.83,2,6.49,6.49,0,0,1,.73,3.24,5.93,5.93,0,0,1-.88,3.14,6.12,6.12,0,0,1-2.57,2.29,9,9,0,0,1-4,.85,13.5,13.5,0,0,1-3.9-.58,12.17,12.17,0,0,1-3.6-1.77l1.9-3.36a10.35,10.35,0,0,0,2.59,1.37,7.7,7.7,0,0,0,2.62.54,4.71,4.71,0,0,0,2.38-.58,2,2,0,0,0,1-1.89q0-1.7-3.18-2.95a28.36,28.36,0,0,1-3.12-1.43,6.42,6.42,0,0,1-2.16-2,5.42,5.42,0,0,1-.91-3.21,5.92,5.92,0,0,1,1.86-4.55,7.56,7.56,0,0,1,5-1.87,12.93,12.93,0,0,1,4.08.55A14,14,0,0,1,128,7l-1.64,3.3A10.66,10.66,0,0,0,121.35,8.77Z"/><path d="M146.91,5.05V9.22H136.29v4.67h9.4v4.17h-9.4v4.73h11V27H132V5.05Z"/><path d="M163.61,27,159,20h-2.89v7h-4.31V5.05h6.64a9.26,9.26,0,0,1,6.32,2,6.83,6.83,0,0,1,2.25,5.4,8.67,8.67,0,0,1-.85,3.79,6.29,6.29,0,0,1-2.6,2.78L168.64,27Zm-7.5-11.13h3.06a3.05,3.05,0,0,0,2.56-1,3.53,3.53,0,0,0,.8-2.22,4.21,4.21,0,0,0-.68-2.28,2.89,2.89,0,0,0-2.65-1.09h-3.09Z"/></g><g id="Layer_4" data-name="Layer 4"><g id="Layer_2-2" data-name="Layer 2"><g id="Layer_6" data-name="Layer 6"><polygon class="cls-2" points="26.95 0 26.95 5.05 26.95 26.95 26.95 32 32 26.95 32 5.05 26.95 0"/><polygon class="cls-1" points="26.95 5.05 26.95 0 0 0 0 5.05 0 26.95 0 32 26.95 32 26.95 26.95 5.05 26.95 5.05 5.05 26.95 5.05"/><polygon class="cls-3" points="5.05 5.05 0 0 0 32 5.05 26.95 5.05 5.05"/><path class="cls-1" d="M23.22,15.83l-8.33,8.33a.72.72,0,0,1-1,0l-3-3,5.3-5.3L10.6,10.27l3-3a.72.72,0,0,1,1,0Z"/><path class="cls-4" d="M16.15,15.83l-5.31,5.31,3,3a.72.72,0,0,0,1,0l8.33-8.33h-7Z"/></g></g></g></g></svg>