<svg xmlns="http://www.w3.org/2000/svg" viewBox="0 0 171.88 32"><defs><style>.cls-1,.cls-2{fill:#ec3d28;}.cls-2{stroke:#fff;stroke-miterlimit:10;stroke-width:4px;}.cls-3{fill:#fff;}</style></defs><title>Asset 9</title><g id="Layer_2" data-name="Layer 2"><g id="Layer_4" data-name="Layer 4"><rect class="cls-1" width="32" height="32"/><path class="cls-2" d="M9.57,9.72H20.16A2.28,2.28,0,0,1,22.43,12v8a2.28,2.28,0,0,1-2.27,2.27H9.57"/></g><g id="Layer_5" data-name="Layer 5"><path class="cls-3" d="M42.19,4.9h6.6a13.38,13.38,0,0,1,7,1.64,9.89,9.89,0,0,1,4,4.23A12.7,12.7,0,0,1,61,16.33a10.46,10.46,0,0,1-1.5,5.61,10.08,10.08,0,0,1-4,3.74A12,12,0,0,1,49.87,27H42.19Zm6.93,17.88A7.85,7.85,0,0,0,54.49,21a6.31,6.31,0,0,0,2-5,7.18,7.18,0,0,0-1.1-4.2,5.9,5.9,0,0,0-2.55-2.16,7.22,7.22,0,0,0-2.75-.6H46.54V22.78Z"/><path class="cls-3" d="M80.38,4.9V9.1H69.67v4.71h9.48V18H69.67v4.77H80.8V27H65.32V4.9Z"/><path class="cls-3" d="M103.57,4.9,93.49,28,83.41,4.9h5.22l5,12.45L98.41,4.9Z"/><path class="cls-1" d="M111.73,4.9V27h-4.35V4.9Z"/><path class="cls-3" d="M124.21,8.65a3.78,3.78,0,0,0-2.23.57,2,2,0,0,0-.79,1.71,2.25,2.25,0,0,0,1.15,1.84,14.38,14.38,0,0,0,3.08,1.52,12.76,12.76,0,0,1,2.67,1.31,5.85,5.85,0,0,1,1.84,2,6.54,6.54,0,0,1,.74,3.27,6,6,0,0,1-.89,3.17,6.17,6.17,0,0,1-2.59,2.31,9,9,0,0,1-4.08.86,13.62,13.62,0,0,1-3.93-.58,12.3,12.3,0,0,1-3.63-1.79l1.92-3.39a10.45,10.45,0,0,0,2.61,1.38,7.77,7.77,0,0,0,2.64.54,4.75,4.75,0,0,0,2.4-.58,2,2,0,0,0,1-1.91q0-1.71-3.21-3a28.55,28.55,0,0,1-3.15-1.44,6.48,6.48,0,0,1-2.18-2,5.47,5.47,0,0,1-.91-3.24,6,6,0,0,1,1.88-4.59,7.62,7.62,0,0,1,5-1.89,13.06,13.06,0,0,1,4.11.56,14.06,14.06,0,0,1,3.21,1.58l-1.65,3.33A10.75,10.75,0,0,0,124.21,8.65Z"/><path class="cls-3" d="M150,4.9V9.1H139.27v4.71h9.48V18h-9.48v4.77H150.4V27H134.92V4.9Z"/><path class="cls-3" d="M166.81,27l-4.65-7h-2.91v7H154.9V4.9h6.69a9.33,9.33,0,0,1,6.38,2,6.88,6.88,0,0,1,2.26,5.44,8.75,8.75,0,0,1-.85,3.83A6.35,6.35,0,0,1,166.75,19l5.13,8Zm-7.56-11.22h3.09a3.08,3.08,0,0,0,2.58-1,3.56,3.56,0,0,0,.81-2.24,4.24,4.24,0,0,0-.69-2.29,2.92,2.92,0,0,0-2.67-1.09h-3.12Z"/></g></g></svg>