<svg xmlns="http://www.w3.org/2000/svg" viewBox="0 0 171.8 31.83"><defs><style>.cls-1{fill:none;stroke:#ef4934;stroke-miterlimit:10;stroke-width:4px;}.cls-2{fill:#ec3d28;}</style></defs><title>Asset 8</title><g id="Layer_2" data-name="Layer 2"><g id="Layer_2-2" data-name="Layer 2"><rect class="cls-1" x="2" y="2" width="27.83" height="27.83"/><path class="cls-1" d="M9.49,9.64H20.08a2.28,2.28,0,0,1,2.27,2.27v8a2.28,2.28,0,0,1-2.27,2.27H9.49"/></g><g id="Layer_3" data-name="Layer 3"><path d="M42.11,4.81h6.6a13.38,13.38,0,0,1,7,1.64,9.9,9.9,0,0,1,4,4.23,12.7,12.7,0,0,1,1.25,5.56,10.46,10.46,0,0,1-1.5,5.61,10.08,10.08,0,0,1-4,3.74,12,12,0,0,1-5.57,1.3H42.11ZM49,22.69A7.85,7.85,0,0,0,54.41,21a6.31,6.31,0,0,0,2-5,7.19,7.19,0,0,0-1.09-4.2,5.9,5.9,0,0,0-2.55-2.16A7.22,7.22,0,0,0,50,9H46.46V22.69Z"/><path d="M80.3,4.81V9H69.59v4.71h9.48v4.2H69.59v4.77H80.72v4.2H65.24V4.81Z"/><path d="M103.49,4.81,93.41,27.91,83.33,4.81h5.22l5,12.45L98.33,4.81Z"/><path class="cls-2" d="M111.65,4.81V26.89H107.3V4.81Z"/><path d="M124.13,8.56a3.79,3.79,0,0,0-2.23.57,2,2,0,0,0-.79,1.71,2.25,2.25,0,0,0,1.15,1.84,14.4,14.4,0,0,0,3.08,1.52A12.77,12.77,0,0,1,128,15.51a5.85,5.85,0,0,1,1.85,2,6.54,6.54,0,0,1,.73,3.27,6,6,0,0,1-.89,3.17,6.17,6.17,0,0,1-2.59,2.31,9,9,0,0,1-4.08.86,13.62,13.62,0,0,1-3.93-.58,12.29,12.29,0,0,1-3.63-1.79l1.92-3.39A10.45,10.45,0,0,0,120,22.75a7.77,7.77,0,0,0,2.64.54,4.75,4.75,0,0,0,2.4-.58,2,2,0,0,0,1-1.91q0-1.71-3.21-3a28.57,28.57,0,0,1-3.15-1.44,6.48,6.48,0,0,1-2.17-2,5.46,5.46,0,0,1-.92-3.24,6,6,0,0,1,1.88-4.59,7.62,7.62,0,0,1,5-1.89,13.06,13.06,0,0,1,4.11.56,14.06,14.06,0,0,1,3.21,1.58l-1.65,3.33A10.75,10.75,0,0,0,124.13,8.56Z"/><path d="M149.9,4.81V9H139.19v4.71h9.48v4.2h-9.48v4.77h11.13v4.2H134.84V4.81Z"/><path d="M166.73,26.89l-4.65-7h-2.91v7h-4.35V4.81h6.69a9.33,9.33,0,0,1,6.38,2,6.88,6.88,0,0,1,2.26,5.44,8.75,8.75,0,0,1-.85,3.83,6.35,6.35,0,0,1-2.62,2.81l5.13,8Zm-7.56-11.22h3.09a3.08,3.08,0,0,0,2.58-1,3.56,3.56,0,0,0,.81-2.24,4.24,4.24,0,0,0-.69-2.29A2.92,2.92,0,0,0,162.29,9h-3.12Z"/></g></g></svg>