<svg xmlns="http://www.w3.org/2000/svg" viewBox="0 0 168.13 32"><defs><style>.cls-1{fill:#f06453;}.cls-2{fill:#ec3d28;}.cls-3,.cls-4{fill:#b12e1e;}.cls-3{isolation:isolate;}.cls-5{fill:#fff;}</style></defs><title>DeviserLogoWhite</title><g id="Layer_2" data-name="Layer 2"><g id="Layer_4" data-name="Layer 4"><g id="Layer_2-2" data-name="Layer 2"><g id="Layer_6" data-name="Layer 6"><polygon class="cls-1" points="26.95 0 26.95 5.05 26.95 26.95 26.95 32 32 26.95 32 5.05 26.95 0"/><polygon class="cls-2" points="26.95 5.05 26.95 0 0 0 0 5.05 0 26.95 0 32 26.95 32 26.95 26.95 5.05 26.95 5.05 5.05 26.95 5.05"/><polygon class="cls-3" points="5.05 5.05 0 0 0 32 5.05 26.95 5.05 5.05"/><path class="cls-2" d="M23.22,15.83l-8.33,8.33a.72.72,0,0,1-1,0l-3-3,5.3-5.3L10.6,10.27l3-3a.72.72,0,0,1,1,0Z"/><path class="cls-4" d="M16.15,15.83l-5.31,5.31,3,3a.72.72,0,0,0,1,0l8.33-8.33h-7Z"/></g></g></g><g id="Layer_5" data-name="Layer 5"><path class="cls-5" d="M39,5h6.57a13.32,13.32,0,0,1,6.93,1.63,9.86,9.86,0,0,1,4,4.21,12.64,12.64,0,0,1,1.24,5.54A10.41,10.41,0,0,1,56.25,22a10,10,0,0,1-4,3.72A11.93,11.93,0,0,1,46.69,27H39Zm6.9,17.8a7.81,7.81,0,0,0,5.35-1.73,6.28,6.28,0,0,0,2-5,7.16,7.16,0,0,0-1.09-4.18,5.87,5.87,0,0,0-2.54-2.15,7.18,7.18,0,0,0-2.73-.6H43.38V22.83Z"/><path class="cls-5" d="M77.06,5V9.22H66.4V13.9h9.44v4.18H66.4v4.75H77.48V27H62.07V5Z"/><path class="cls-5" d="M100.14,5l-10,23-10-23h5.2l5,12.39L95,5Z"/><path class="cls-2" d="M108.27,5V27h-4.33V5Z"/><path class="cls-5" d="M120.69,8.77a3.77,3.77,0,0,0-2.22.57,2,2,0,0,0-.79,1.7,2.24,2.24,0,0,0,1.15,1.84,14.36,14.36,0,0,0,3.06,1.51,12.74,12.74,0,0,1,2.66,1.3,5.81,5.81,0,0,1,1.84,2,6.5,6.5,0,0,1,.73,3.25,6,6,0,0,1-.88,3.15,6.14,6.14,0,0,1-2.58,2.3,9,9,0,0,1-4.06.85,13.55,13.55,0,0,1-3.91-.58,12.22,12.22,0,0,1-3.61-1.78L114,21.52a10.41,10.41,0,0,0,2.6,1.37,7.71,7.71,0,0,0,2.63.54,4.72,4.72,0,0,0,2.39-.58,2,2,0,0,0,1-1.9q0-1.7-3.2-3a28.46,28.46,0,0,1-3.13-1.43,6.45,6.45,0,0,1-2.17-2,5.44,5.44,0,0,1-.91-3.23,5.94,5.94,0,0,1,1.87-4.57,7.58,7.58,0,0,1,5-1.88,13,13,0,0,1,4.09.55A14,14,0,0,1,127.32,7l-1.64,3.31A10.7,10.7,0,0,0,120.69,8.77Z"/><path class="cls-5" d="M146.34,5V9.22H135.68V13.9h9.44v4.18h-9.44v4.75h11.08V27H131.35V5Z"/><path class="cls-5" d="M163.09,27l-4.63-7h-2.9v7h-4.33V5h6.66a9.29,9.29,0,0,1,6.34,2,6.85,6.85,0,0,1,2.25,5.42,8.7,8.7,0,0,1-.85,3.81A6.32,6.32,0,0,1,163,19l5.11,8Zm-7.52-11.17h3.08a3.06,3.06,0,0,0,2.57-1,3.54,3.54,0,0,0,.81-2.22,4.22,4.22,0,0,0-.69-2.28,2.9,2.9,0,0,0-2.66-1.09h-3.11Z"/></g></g></svg>