<svg id="Layer_1" data-name="Layer 1" xmlns="http://www.w3.org/2000/svg" viewBox="0 0 300 300"><defs><style>.cls-1{fill:#fcfcfc;}.cls-2{fill:#ec3d28;}.cls-3{fill:#fff;}</style></defs><title>Compass</title><circle cx="150" cy="150" r="150"/><path d="M150,271A121,121,0,1,1,271,150,121.11,121.11,0,0,1,150,271Z"/><path class="cls-1" d="M150,29A121,121,0,1,0,271,150,121.11,121.11,0,0,0,150,29Z"/><path d="M226.29,89.55l-39.9,87.3a19.32,19.32,0,0,1-9.54,9.54l-87.3,39.9a12,12,0,0,1-15.85-15.85l39.9-87.3a19.32,19.32,0,0,1,9.54-9.54l87.3-39.9A12,12,0,0,1,226.29,89.55Z"/><path class="cls-2" d="M210.45,73.71l-87.3,39.9a19.32,19.32,0,0,0-9.54,9.54l-39.9,87.3a12,12,0,0,0,15.85,15.85l87.3-39.9a19.32,19.32,0,0,0,9.54-9.54l39.9-87.3A12,12,0,0,0,210.45,73.71Z"/><circle cx="150" cy="150" r="19.31" transform="translate(-62.13 150) rotate(-45)"/><circle class="cls-3" cx="150" cy="150" r="19.31" transform="translate(-62.13 150) rotate(-45)"/></svg>