<?xml version="1.0" encoding="utf-8"?>
<!-- Generator: Adobe Illustrator 21.1.0, SVG Export Plug-In . SVG Version: 6.00 Build 0)  -->
<svg version="1.1" xmlns="http://www.w3.org/2000/svg" xmlns:xlink="http://www.w3.org/1999/xlink" x="0px" y="0px"
	 viewBox="0 0 300 300" style="enable-background:new 0 0 300 300;" xml:space="preserve">
<style type="text/css">
	.st0{fill:#FFFFFF;}
	.st1{fill:#EC3D28;}
</style>
<g id="Layer_2">
	<path d="M144,291L9.4,156.4c-4.1-4.1-4.1-10.8,0-14.9L143.5,7.4c4.1-4.1,10.8-4.1,14.9,0L293,142c4.1,4.1,4.1,10.8,0,14.9L159,291
		C154.8,295.2,148.2,295.2,144,291z"/>
	<path class="st0" d="M150.7,260.9L39.6,149.8c-0.1-0.1-0.1-0.3,0-0.4L150.3,38.7c0.1-0.1,0.3-0.1,0.4,0l111.1,111.1
		c0.1,0.1,0.1,0.3,0,0.4L151.1,260.9C151,261,150.8,261,150.7,260.9z"/>
</g>
<g id="Layer_1">
	<path class="st1" d="M181.6,100c-2.6-2.4-6.7-0.5-6.7,2.9v26.9h-56.1c-8.8,0-16,7.2-16,16v40c0,2.2,1.8,4,4,4h16c2.2,0,4-1.8,4-4
		v-32h48.1v26.9c0,3.5,4.2,5.3,6.7,2.9l42.2-38.9c1.7-1.6,1.7-4.3,0-5.9L181.6,100z"/>
</g>
</svg>
