<svg id="Layer_1" data-name="Layer 1" xmlns="http://www.w3.org/2000/svg" viewBox="0 0 300 172.25"><defs><style>.cls-1{fill:#fff;}.cls-2{fill:#ec3d28;}</style></defs><title>Eye</title><path d="M296.82,148.57c-9.49-11.76-20.54-21.93-32.39-31.35-25.29-20.38-53.73-36.85-85.32-43.89a142,142,0,0,0-54.52-.79C108,75.66,92.2,82,77.2,89.79c-23.69,12.55-45,29-64,47.81A129.28,129.28,0,0,0,3,148.57a11.85,11.85,0,0,0,0,15.67C12.45,176,23.5,186.17,35.35,195.59,60.64,216,89.08,232.43,120.7,239.48a142,142,0,0,0,54.52.79c16.59-3.13,32.39-9.42,47.39-17.25,23.69-12.55,45-29,64-47.81a129.27,129.27,0,0,0,10.26-11c1.56-1.55,3.15-3.92,3.15-6.26v-.79c0-.79,0-.79,0-2.37C300,152.48,298.41,150.14,296.82,148.57Z" transform="translate(0 -70.28)"/><path d="M149.28,209.82c-30.67,0-55.85-25-55.85-55.42S118.61,99,149.28,99s55.85,25,55.85,55.42S179.94,209.82,149.28,209.82Z" transform="translate(0 -70.28)"/><path class="cls-1" d="M149.28,99c-30.67,0-55.85,25-55.85,55.42s25.18,55.42,55.85,55.42,55.85-25,55.85-55.42S179.94,99,149.28,99Z" transform="translate(0 -70.28)"/><path d="M149.28,182.54a28.1,28.1,0,1,1,28.32-28.1A28.1,28.1,0,0,1,149.28,182.54Z" transform="translate(0 -70.28)"/><path class="cls-2" d="M149.28,126.33a28.1,28.1,0,1,0,28.32,28.1A28.1,28.1,0,0,0,149.28,126.33Z" transform="translate(0 -70.28)"/></svg>