<?xml version="1.0" standalone="no"?>
<!DOCTYPE svg PUBLIC "-//W3C//DTD SVG 20010904//EN"
 "http://www.w3.org/TR/2001/REC-SVG-20010904/DTD/svg10.dtd">
<svg version="1.0" xmlns="http://www.w3.org/2000/svg"
 width="128.000000pt" height="128.000000pt" viewBox="0 0 128.000000 128.000000"
 preserveAspectRatio="xMidYMid meet">
<metadata>
Created by potrace 1.11, written by Peter Selinger 2001-2013
</metadata>
<g transform="translate(0.000000,128.000000) scale(0.100000,-0.100000)"
fill="#000000" stroke="none">
<path d="M0 640 l0 -640 640 0 640 0 0 640 0 640 -640 0 -640 0 0 -640z m867
319 c42 -15 92 -68 103 -109 13 -46 13 -374 0 -420 -11 -41 -61 -94 -103 -109
-17 -7 -120 -11 -258 -11 l-229 0 0 80 0 80 218 2 217 3 0 165 0 165 -217 3
-218 2 0 80 0 80 229 0 c138 0 241 -4 258 -11z"/>
</g>
</svg>
