<?xml version="1.0" standalone="no"?>
<!DOCTYPE svg PUBLIC "-//W3C//DTD SVG 20010904//EN"
 "http://www.w3.org/TR/2001/REC-SVG-20010904/DTD/svg10.dtd">
<svg version="1.0" xmlns="http://www.w3.org/2000/svg"
 width="700.000000pt" height="700.000000pt" viewBox="0 0 700.000000 700.000000"
 preserveAspectRatio="xMidYMid meet">
<metadata>
Created by potrace 1.11, written by Peter Selinger 2001-2013
</metadata>
<g transform="translate(0.000000,700.000000) scale(0.100000,-0.100000)"
fill="#000000" stroke="none">
<path d="M0 3500 l0 -3500 2953 0 2952 0 548 548 547 547 0 2395 0 2395 -201
205 c-111 113 -357 364 -547 558 l-346 352 -2953 0 -2953 0 0 -3500z m5905
-10 l0 -2395 -2392 -1 -2393 0 -1 20 c-1 27 -1 4771 0 4771 1 0 1078 0 2394 0
l2392 0 0 -2395z"/>
<path d="M3060 5472 c-14 -2 -38 -14 -55 -25 -16 -12 -178 -170 -358 -350
l-329 -329 609 -609 c629 -630 625 -626 608 -616 -11 5 -1165 -1143 -1165
-1159 0 -17 675 -683 703 -693 46 -18 109 -13 147 10 32 20 1850 1829 1850
1842 0 9 -1870 1876 -1904 1901 -33 25 -66 34 -106 28z"/>
</g>
</svg>
